<svg width="24" height="25" viewBox="0 0 24 25" fill="none" xmlns="http://www.w3.org/2000/svg">
<path d="M12 17.8625C11.8 17.8625 11.6125 17.8315 11.4375 17.7695C11.2625 17.7075 11.1 17.601 10.95 17.45L5.55 12.05C5.25 11.75 5.106 11.4 5.118 11C5.13 10.6 5.274 10.25 5.55 9.95C5.85 9.65 6.2065 9.494 6.61949 9.482C7.03249 9.47 7.38849 9.6135 7.68749 9.9125L10.5 12.725V2C10.5 1.575 10.644 1.219 10.932 0.932005C11.22 0.645005 11.576 0.501005 12 0.500005C12.424 0.499005 12.7805 0.643005 13.0695 0.932005C13.3585 1.221 13.502 1.577 13.5 2V12.725L16.3125 9.9125C16.6125 9.6125 16.969 9.4685 17.382 9.4805C17.795 9.4925 18.151 9.649 18.45 9.95C18.725 10.25 18.869 10.6 18.882 11C18.895 11.4 18.751 11.75 18.45 12.05L13.05 17.45C12.9 17.6 12.7375 17.7065 12.5625 17.7695C12.3875 17.8325 12.2 17.8635 12 17.8625ZM3 24.5C2.175 24.5 1.469 24.2065 0.881999 23.6195C0.294999 23.0325 0.000999999 22.326 0 21.5V18.5C0 18.075 0.144 17.719 0.432 17.432C0.72 17.145 1.076 17.001 1.5 17C1.924 16.999 2.2805 17.143 2.5695 17.432C2.8585 17.721 3.002 18.077 3 18.5V21.5H21V18.5C21 18.075 21.144 17.719 21.432 17.432C21.72 17.145 22.076 17.001 22.5 17C22.924 16.999 23.2805 17.143 23.5695 17.432C23.8585 17.721 24.002 18.077 24 18.5V21.5C24 22.325 23.7065 23.0315 23.1195 23.6195C22.5325 24.2075 21.826 24.501 21 24.5H3Z" fill="white"/>
</svg>
