<svg width="601" height="451" viewBox="0 0 601 451" fill="none" xmlns="http://www.w3.org/2000/svg">
<path fill-rule="evenodd" clip-rule="evenodd" d="M165.461 371.587C165.531 347.783 165.988 323.971 166.792 300.181C167.388 282.549 168.152 264.904 169.63 247.321C170.216 240.355 170.897 233.384 171.968 226.474C172.632 222.195 173.242 217.534 175.047 213.551C175.639 212.247 176.209 211.399 177.467 210.732C182.117 208.264 188.488 207.902 193.614 207.381C202.019 206.527 210.526 206.281 218.972 206.455C218.477 215.539 217.982 224.624 217.487 233.707C217.107 240.704 216.725 247.701 216.344 254.697C216.104 259.113 215.524 263.655 215.615 268.078C215.69 271.681 219.927 275.13 222.081 277.943C224.723 269.861 227.365 261.78 230.008 253.698C231.405 257.305 232.898 260.881 234.522 264.391C235.594 266.706 236.685 269.089 238.105 271.217C239.404 273.161 239.784 273.435 242.041 273.103C244.757 272.704 246.82 271.899 248.425 273.918C249.848 275.708 251.174 277.534 252.718 279.233C269.773 297.991 296.055 309.64 320.407 314.91C334.75 318.013 349.219 320.533 363.556 323.697C385.447 328.529 407.932 333.293 428.84 341.552C432.116 342.846 435.429 344.237 438.418 346.12C441.715 348.196 444.069 351.337 446.35 354.447C451.923 362.047 458.457 374.512 449.861 382.443C443.271 388.524 432.974 389.135 424.413 389.819C415.564 390.527 406.683 390.872 397.812 391.161C373.647 391.946 349.461 392.116 325.285 392.138C303.197 392.155 281.106 392.031 259.022 391.608C249.003 391.417 239.348 391.649 229.654 389.078C209.813 383.817 190.029 378.34 170.236 372.9C168.645 372.463 167.053 372.025 165.461 371.587Z" fill="black"/>
<path fill-rule="evenodd" clip-rule="evenodd" d="M367.081 163.553C366.154 164.516 367.656 165.258 368.332 165.468C368.223 164.539 367.775 164.119 367.081 163.553ZM240.032 344.637C239.674 343.794 239.141 343.101 238.167 343.499C236.555 344.156 239.815 344.628 240.032 344.637ZM380.124 208.868C380.79 208.95 383.514 208.78 382.672 207.298C381.696 205.58 380.354 208.336 380.124 208.868ZM331.276 193.669C332.708 192.442 333.991 190.565 334.006 188.615C332.656 189.511 331.935 192.283 331.276 193.669ZM365.616 169.022C366.809 169.083 365.717 167.403 365.729 167.069C365.754 166.351 366.425 165.735 366.316 164.883C366.312 164.849 365.11 162.157 364.793 161.986C363.9 161.505 363.382 162.386 362.581 162.658C361.395 163.062 360.816 162.706 359.543 162.83C358.42 162.94 357.475 163.486 356.302 163.485C356.024 163.485 355.716 162.895 355.396 162.927C354.897 162.978 354.85 163.614 354.497 163.646C353.258 163.756 353.186 163.264 352.03 162.801C350.108 162.033 348.76 163.821 348.803 165.934C348.86 168.734 351.781 169.878 354.018 170.522C356.904 171.351 358.507 171.851 361.439 171.329C362.287 171.177 363.148 171.447 363.818 170.862C364.717 170.076 364.24 168.417 365.267 167.651C365.383 168.108 365.499 168.565 365.616 169.022ZM264.091 280.41C264.331 282.239 263.828 283.181 265.603 284.407C266.65 285.131 267.968 285.608 269.077 286.333C270.685 287.383 273.093 288.058 274.519 289.267C275.424 290.034 275.585 292.205 276.84 292.468C277.909 292.691 279.182 290.761 279.548 289.892C279.954 288.93 279.683 288.137 279.847 287.175C279.958 286.53 280.441 286.396 280.356 285.638C280.268 284.843 279.496 284.423 279.161 283.792C278.861 283.226 278.77 282.424 278.536 281.978C277.981 280.927 276.75 278.695 275.652 278C274.728 280.427 274.027 277.967 272.745 277.255C272.267 277.242 271.788 277.237 271.31 277.243C271.062 277.007 270.809 276.775 270.553 276.549C269.962 276.494 268.988 276.81 268.455 276.974C268.162 276.908 267.865 276.868 267.564 276.857C267.164 276.974 267.005 277.196 267.09 277.524C267.264 277.445 266.298 278.031 266.206 278.093C264.3 279.388 262.552 279.905 262.198 282.66C262.829 281.91 263.461 281.16 264.091 280.41ZM278.956 182.058C276.918 176.776 277.565 172.123 277.762 166.594C277.808 165.296 278.085 162.512 276.729 161.651C275.036 160.577 273.627 163.006 272.743 164.011C271.225 165.737 269.107 167.321 268.33 169.561C267.643 171.537 268.351 173.961 268.875 175.918C269.44 178.028 270.138 180.864 272.059 182.032C274.109 183.279 276.89 183.157 278.956 182.058ZM350.795 294.385C350.501 290.337 344.871 291.756 342.339 293.004C340.446 293.937 339.386 295.36 338.194 297.053C336.84 298.974 336.397 299.511 336.505 301.795C336.604 303.878 336.488 305.974 337.01 308.047C337.275 309.099 337.334 309.285 338.032 310.01C338.03 310.008 339.242 311.215 338.905 311.022C340.467 311.914 342.796 312.063 344.632 312.201C347.255 312.398 347.886 312.434 348.951 309.941C349.155 310.375 349.36 310.809 349.564 311.243C349.63 310.936 350.359 307.294 350.19 307.33C349.896 307.393 349.58 308.241 349.436 308.456C349.528 306.779 350.722 305.525 351.3 304.029C351.833 302.654 352.051 301.096 352.462 299.674C352.859 298.297 353.304 296.381 352.92 294.952C352.409 293.054 352.248 293.594 350.795 294.385ZM384.787 205.149C385.702 206.011 384.887 207.405 385.006 208.473C386.249 207.711 385.818 207.302 386.299 206.062C386.609 205.263 387.523 203.735 388.321 205.044C388.657 205.594 387.547 206.35 388.299 206.674C388.74 206.863 389.916 205.384 390.131 205.152C391.613 203.548 392.561 201.908 392.683 199.72C392.717 199.121 392.708 197.627 392.496 197.283C391.88 196.29 390.242 196.877 390.382 195.063C391.034 195.387 391.687 195.711 392.339 196.036C392.541 193.995 390.339 192.787 389.418 191.168C388.37 189.323 387.689 187.98 385.98 186.393C385.191 185.66 383.908 184.15 382.884 183.797C382.088 183.523 381.765 183.928 380.962 183.936C379.282 183.951 376.758 183.497 379.258 185.361C378.75 185.599 378.083 185.747 377.65 186.123C377.329 186.401 377.209 187.196 376.832 187.387C376.02 187.797 375.413 186.997 374.496 187.908C373.531 188.868 374.519 189.473 374.303 189.896C373.685 191.113 372.835 190.508 372.862 192.363C372.907 195.422 374.669 199.042 375.617 201.9C376.174 203.58 376.797 206.207 379.147 205.519C379.058 206.327 378.853 207.111 379.378 207.833C379.869 207.255 380.044 205.989 380.375 205.311C380.862 204.312 381.656 203.348 382.216 202.377C382.134 203.911 381.968 204.338 380.925 205.5C382.297 205.668 383.987 206.768 384.787 205.149ZM284.381 249.6C285.64 248.647 283.987 247.583 286.47 248.124C287.104 248.262 286.467 249.003 287.424 249.03C287.785 249.04 288.67 248.151 288.92 247.943C289.149 247.752 290.178 246.365 290.343 246.275C290.067 246.424 291.593 245.833 291.116 246.217C292.025 245.485 292.717 244.281 293.125 242.818C294.127 239.232 293.984 234.946 291.907 231.865C291.036 230.574 290.342 228.998 289.03 228.131C287.25 226.956 284.309 226.257 282.321 225.51L282.965 223.945C277.508 226.411 273.745 232.168 273.286 238.017C273.121 240.121 272.521 242.793 273.803 244.658C275.14 246.605 278.512 248.652 280.374 246.489C280.091 247.694 280.921 249.136 282.195 249.445C282.677 249.562 283.132 249.213 283.345 249.244C283.616 249.282 284.189 249.639 284.381 249.6ZM234.295 127.485C230.629 127.048 231.198 133.67 231.886 135.659C232.44 137.263 234.427 139.496 235.478 140.893C236.731 142.558 238.402 143.801 240.179 144.863C240.788 145.227 241.234 145.343 241.76 145.547C241.947 145.361 242.17 145.264 242.431 145.256C242.66 145.638 242.984 145.924 243.404 146.113C244.737 146.528 246.943 146.465 248.268 146.409C250.403 146.319 252.896 145.09 255.02 144.681C256.013 144.489 256.565 144.412 257.443 143.896C257.885 143.637 258.751 141.636 258.875 143.601C259.422 143.264 259.249 142.71 259.65 142.463C260.032 142.227 261.253 142.001 261.709 141.482C262.344 140.759 263.188 139.11 263.63 138.122C263.914 137.488 264.516 135.854 264.469 135.194C264.368 133.797 263.918 134.119 262.723 133.54C261.925 133.153 261.466 132.829 260.669 132.615C260.576 132.591 260.354 133.067 260.198 133.026C259.924 132.955 259.814 132.64 259.623 132.578C258.166 132.106 256.447 130.706 254.646 130.841C253.868 130.9 253.14 132.085 252.74 132.024C252.126 131.931 252.433 130.67 252.004 130.213C250.912 129.05 247.266 129.238 245.85 129.036C242.002 128.488 238.15 127.976 234.295 127.485ZM362.721 228.141C363.072 225.394 363.504 222.665 360.491 221.313C359.36 220.805 358.419 220.989 357.26 220.851C355.753 220.672 355.972 220.023 354.854 221.64C354.236 220.846 354.647 220.588 353.635 220.493C353.217 220.455 351.395 221.641 350.921 221.835C348.943 222.644 346.425 222.569 344.933 224.201C343.483 225.787 342.311 227.311 341.7 229.475C341.391 230.565 341.189 231.694 340.808 232.764C340.396 233.921 339.47 234.919 339.152 236.076C337.862 240.787 343.349 245.086 347.203 246.336C347.7 246.234 348.186 246.266 348.664 246.432C349 246.654 349.302 246.916 349.569 247.217C350.782 247.598 351.07 247.472 352.304 246.916C354.338 245.999 356.715 245.686 358.255 247.832C358.73 245.335 360.464 246.821 361.297 245.212C361.758 244.325 360.752 241.868 361.335 241.229C362.325 240.143 365.411 242.074 365.332 239.538C365.302 238.614 364.252 238.308 363.888 237.578C363.235 236.267 363.598 234.879 364.506 233.727C364.591 233.926 364.92 235.232 365.355 234.886C366.509 233.968 364.612 232.522 364.197 232.021C363.515 231.196 362.894 230.565 363.046 229.413C363.14 228.698 364.287 227.954 364.246 227.259C364.214 226.73 362.797 228.08 362.721 228.141ZM309.108 257.804C309.186 259.73 307.955 259.982 307.145 261.306C306.925 261.667 306.91 262.532 306.602 263.061C306.027 264.053 305.626 264.114 305.442 265.08C305.462 264.973 305.75 266.038 305.757 266.159C305.836 267.518 304.891 268.605 305.151 270.1C305.516 272.203 307.114 274.545 308.241 276.294C310.788 280.248 314.349 283.313 319.227 283.592C322.484 283.779 330.149 282.477 330.847 279.071C330.663 278.676 330.508 278.269 330.38 277.851C330.305 277.246 330.53 276.833 331.054 276.612C331.456 276.506 331.77 276.282 331.997 275.941C331.887 275.594 331.705 275.29 331.453 275.027C331.544 274.571 332.312 274.549 332.3 274.255C332.277 273.708 331.795 272.336 331.666 271.712C331.442 270.634 331.32 269.607 331.123 268.522C330.964 267.644 330.426 267.211 330.287 266.406C330.192 265.857 330.75 265.359 330.703 264.776C330.336 264.448 330.038 264.064 329.809 263.627C329.783 263.172 329.895 262.75 330.145 262.362C329.598 258.531 324.178 255.314 320.322 255.226C318.251 255.179 314.714 255.03 312.852 256.112C311.606 256.835 310.771 259.4 309.108 257.804ZM225.958 392.813C223.235 391.585 220.797 390.278 217.88 389.682C215.776 389.251 213.969 388.069 211.853 387.683C207.168 386.829 202.107 386.041 197.613 384.398C192.794 382.635 187.546 382.004 182.608 380.539C180.176 379.818 178.054 379.345 175.539 379.206C173.088 379.07 170.57 377.704 168.12 377.935C166.073 378.128 164.613 379.701 163.011 380.822C160.934 382.275 158.669 383.529 156.436 384.729C154.067 386.004 151.428 386.642 149.09 387.885C147.149 388.917 145.242 389.923 143.241 390.869C132.607 395.894 122.338 400.588 112.748 407.579C115.841 408.52 119.359 407.582 122.432 407.25C126.8 406.778 131.152 406.424 135.477 405.615C138.008 405.142 142.947 403.336 145.364 404.724C147.487 405.943 147.324 409.072 147.629 411.165C149.633 410.391 151.629 409.598 153.651 408.871C155.241 408.3 157.822 406.729 159.443 406.674C163.957 406.521 163.464 412.857 163.024 415.764C165.662 414.868 168.171 414.243 170.728 413.133C172.777 412.243 175.041 412.047 177.032 410.986C181.979 408.349 187.468 406.697 192.765 404.825C198.741 402.713 204.704 400.561 210.629 398.308C213.064 397.382 215.466 396.159 217.957 395.407C220.64 394.598 223.386 393.99 225.958 392.813ZM284.922 151.231C284.543 154.795 284.933 158.388 285.042 161.956C285.17 166.134 285.175 170.267 285.716 174.42C286.692 181.912 288.066 189.407 290.749 196.496C293.191 202.953 297.312 207.518 304.292 208.914C310.563 210.167 316.674 208.018 320.665 203.007C324.805 197.812 326.076 191.25 328.5 185.228C329.686 182.284 330.563 179.323 331.552 176.31C332.145 174.506 335.084 169.325 334.243 167.471C333.422 165.661 328.578 165.042 326.901 164.036C324.237 162.437 321.773 159.231 319.74 156.889C318.378 155.319 317.582 154.158 316.663 156.649C315.559 159.641 316.359 163.098 315.328 166.001C314.314 168.855 312.1 166.039 311.873 164.179C311.437 160.607 311.962 156.549 312.13 152.959C312.445 146.269 312.884 138.531 318.917 134.406C324.634 130.497 330.84 129.281 334.014 122.531C335.287 119.825 336.783 116.991 335.988 113.963C335.069 110.469 333.709 106.815 332.371 103.457C329.802 97.0083 325.777 91.3932 322.258 85.4724C321.783 84.6737 321.683 83.6501 320.645 83.4245C319.471 83.169 316.73 85.1665 315.591 85.4888C312.491 86.3653 309.721 84.5466 306.986 86.605C304.791 88.2573 302.93 90.635 299.969 90.8079C298.694 90.8823 296.963 89.7438 295.865 90.0157C294.465 90.362 294.06 92.4509 293.52 93.6245C292.281 96.3175 290.898 99.6919 288.854 101.893C288.161 102.64 286.935 102.871 286.343 103.567C285.653 104.375 286.036 106.015 285.048 106.162C284.476 106.247 284.019 105.471 283.537 105.286C282.719 104.971 281.916 104.91 281.04 104.936C279.419 104.983 277.737 105.375 276.313 106.151C273.001 107.954 271.777 110.697 275.758 112.346C277.353 113.008 279.086 113.5 280.812 113.654C282.706 113.822 284.623 113.231 286.496 113.461C290.108 113.906 291.219 116.927 292.154 120.032C293.44 124.302 294.479 128.625 295.923 132.851C297.102 136.304 299.245 139.813 299.864 143.419C300.244 145.635 299.746 145.469 298.267 146.839C297.14 147.882 296.463 149.252 295.242 150.298C291.839 153.216 288.874 152.438 284.922 151.231ZM504.576 358.643C504.472 357.882 488.342 359.337 486.509 359.149C483.378 358.826 480.044 359.684 476.807 359.574C473.945 359.477 469.817 358.365 467.455 359.754C466.579 360.269 466.557 360.878 465.174 360.615C463.889 360.371 462.536 359.463 461.574 358.621C458.896 356.279 457.261 352.593 455.51 349.555C452.005 343.475 449.004 337.176 446.095 330.782C440.104 317.613 434.34 304.369 428.355 291.197C425.395 284.682 422.541 278.156 419.348 271.761C417.986 269.032 416.49 266.038 415.441 263.18C414.298 260.062 412.795 257.135 411.77 253.939C409.598 247.169 407.002 240.501 405.339 233.539C404.918 231.777 404.762 229.931 404.254 228.194C403.713 226.338 402.607 224.751 401.914 222.955C401.207 221.124 401.206 219.491 400.854 217.62C400.503 215.756 399.646 213.938 399.029 212.152C395.853 214.067 392.236 215.811 389.313 218.087C386.438 220.327 382.242 222.203 383.446 226.253C384.54 229.936 386.479 233.323 387.632 237.001C388.926 241.128 390.515 245.162 391.763 249.298C394.443 258.178 396.788 267.162 399.188 276.122C400.315 280.331 401.724 284.549 402.55 288.83C402.98 291.057 402.91 293.049 403.719 295.206C404.51 297.315 405.26 299.378 405.91 301.537C407.067 305.381 408.171 309.232 409.45 313.035C410.143 315.094 410.697 317.175 411.189 319.29C411.487 320.567 412.501 323.025 412.216 324.349C411.397 328.158 406.358 324.276 405.152 322.721C402.354 319.114 400.347 314.702 398.252 310.663C389.839 294.445 385.702 276.953 381.365 259.299C380.224 254.658 379.123 250.058 377.842 245.465C376.499 240.652 376.108 235.62 374.523 230.834C372.886 225.889 371.215 221.124 370.012 216.036C369.456 213.681 368.868 211.326 368.374 208.958C368.11 207.692 368.099 205.366 366.414 205.114C367.499 213.052 367.9 222.352 371.063 229.797C373.931 236.549 376.21 245.801 373.311 252.97C371.917 256.417 369.711 259.362 368.053 262.646C366.199 266.318 364.991 270.534 363.748 274.447C361.174 282.549 360.415 291.07 358.693 299.358C357.79 303.702 357.772 306.674 358.556 310.948C358.808 312.324 358.363 313.418 359.522 314.301C360.688 315.189 363.385 315.368 364.825 315.877C369.199 317.423 372.96 318.558 377.592 319.065C381.967 319.544 386.076 320.413 390.243 321.846C397.752 324.428 405.561 326.358 412.94 328.947C416.976 330.363 420.868 332.886 424.748 334.696C428.784 336.578 433.065 337.808 436.87 340.158C440.969 342.688 445.021 345.626 448.905 348.463C452.503 351.09 454.227 354.356 455.725 358.445C458.572 366.218 465.75 376.305 459.12 384.149C461.444 385.159 464.104 385.56 466.331 386.64C467.1 387.013 467.329 387.377 468.204 387.592C469.347 387.872 470.818 387.648 471.989 387.724C473.682 387.834 477.25 389.052 478.902 388.56C480.445 388.1 480.512 385.861 481.621 384.756C483.265 383.117 484.843 384.174 486.854 383.992C489.834 383.722 492.802 383.331 495.784 383.071C501.799 382.546 507.797 382.423 513.832 382.437C510.69 378.95 499.136 385.296 498.853 378.98C498.524 371.671 507.445 373.863 511.781 371.755C507.84 371.871 503.898 371.909 499.964 372.221C497.577 372.411 492.987 373.554 491.637 370.931C490.187 368.11 492.521 364.847 494.707 363.374C497.732 361.336 501.229 360.037 504.576 358.643ZM175.82 261.187C175.097 262.628 176.217 263.209 176.724 264.371C177.425 265.976 176.733 265.657 176.592 267.167C176.498 268.181 176.775 268.659 176.717 269.607C176.693 270.011 176.119 270.547 176.052 271.007C175.93 271.831 176.376 272.211 176.328 272.809C176.303 273.107 176.688 273.159 176.609 273.59C176.541 273.965 175.677 274.23 175.626 274.466C175.333 275.835 176.153 275.15 176.279 275.799C176.489 276.882 175.879 277.068 175.532 278.065C174.934 279.783 175.512 280.584 175.882 282.196C176.195 283.554 175.73 283.564 175.554 284.862C175.447 285.648 175.674 285.745 175.671 286.476C175.66 289.004 175.095 291.633 175.071 294.311C175.016 300.65 174.479 306.896 174.399 313.22C174.32 319.433 173.867 325.724 173.595 332.015C173.463 335.082 173.152 338.139 173.018 341.207C172.861 344.77 173.21 348.315 172.91 351.864C172.637 355.089 172.801 358.325 172.667 361.56C172.604 363.094 171.815 367.738 172.822 368.77C174.131 370.109 179.435 368.683 181.151 368.777C184.376 368.954 187.776 369.603 190.936 370.268C198.425 371.846 205.931 373.854 213.423 375.269C219.669 376.449 225.53 379.45 231.344 381.989C230.812 376.648 229.871 371.437 229.697 366.053C229.541 361.215 229.997 356.401 229.89 351.568C229.661 341.257 229.077 331.06 229.307 320.75C229.542 310.267 230.387 299.562 231.846 289.178C232.517 284.407 233.04 279.324 234.747 274.791C235.521 272.737 236.78 271.231 236.257 268.972C235.691 266.525 234.571 263.966 233.744 261.593C233.136 265.458 230.993 291.212 222.187 283.47C218.749 280.447 217.157 273.898 216.388 269.607C215.35 263.805 215.722 257.708 215.749 251.838C215.803 239.877 217.119 227.675 218.325 215.78C218.566 213.404 219.766 211.279 216.718 211.393C213.86 211.5 210.924 212.177 208.082 212.51C205.622 212.798 203.152 212.096 200.809 212.41C199.734 212.555 198.784 213.191 197.698 213.352C196.329 213.555 194.898 213.258 193.52 213.259C191.196 213.262 188.503 213.25 186.574 214.696C184.549 216.214 182.812 218.726 182.132 221.156C181.452 223.585 181.634 226.32 181.204 228.747C180.841 230.792 180.764 233.317 180.424 235.64C178.954 233.798 179.049 236.457 179.033 237.242C179.015 238.192 177.993 240.112 178.256 240.669C178.426 241.028 179.568 240.838 179.664 241.12C179.863 241.7 179.176 241.945 179.163 242.378C179.115 244.068 179.212 245.815 179.207 247.519C178.809 247.214 178.409 246.909 178.01 246.604C177.801 247.06 177.734 247.654 177.535 248.115C177.444 248.325 176.602 248.267 176.562 248.679C176.51 249.218 177.689 250.255 177.916 250.843C178.323 251.894 178.583 251.48 177.893 252.613C177.098 253.918 175.797 253.99 176.005 255.887C176.426 255.565 176.793 255.19 177.107 254.763C177.304 255.895 176.812 256.892 176.752 258.02C176.712 258.757 177.61 261.699 176.933 262.191C176.649 262.399 175.889 261.266 175.82 261.187ZM235.231 168.37C235.236 165.886 231.611 162.067 230.364 159.989C228.375 156.673 226.237 153.671 223.708 150.741C221.168 147.797 218.456 144.991 215.993 141.983C214.974 140.739 214.217 139.286 213.178 138.068C211.879 136.547 211.604 137.014 209.995 137.055C208.772 137.086 207.974 136.878 206.843 137.241C206.243 137.434 205.853 137.72 205.208 137.898C204.805 138.01 204.272 137.618 203.73 137.807C202.389 138.274 201.934 139.469 200.316 139.445C200.122 139.442 199.501 138.982 199.411 139.008C199.302 139.039 198.799 139.423 198.816 139.419C198.709 139.444 198.74 140.205 198.453 140.337C197.962 140.563 197.613 139.805 197.166 139.854C196.037 139.978 195.196 141.144 193.947 141.426C192.341 141.789 190.953 141.26 189.419 142.007C188.194 142.604 187.575 143.961 186.556 142.558C185.633 144.517 183.934 143.924 182.237 144.749C179.871 145.901 177.307 146.484 174.787 147.354C169.603 149.143 164.383 150.975 159.33 153.129C148.848 157.596 138.697 162.549 128.45 167.352C118.428 172.049 109.159 178.277 100.139 184.546C95.7172 187.619 91.3209 190.848 87.8715 195.057C86.8262 196.332 85.0806 198.312 85.7849 200.106C86.5303 202.004 89.6803 203.181 91.4615 203.545C93.797 204.023 96.3646 204.183 98.7424 204.342C101.309 204.514 104.067 204.599 106.607 204.565C111.615 204.496 116.526 204.008 121.557 203.897C127.28 203.77 132.89 202.563 138.601 202.492C144.88 202.413 151.087 201.626 157.374 201.872C169.494 202.346 181.603 202.696 193.758 202.755C195.27 202.762 196.753 202.58 198.239 202.843C199.444 203.057 200.315 203.478 201.607 203.386C202.811 203.3 203.928 202.773 205.154 202.709C206.766 202.625 208.416 202.891 210.036 202.857C215.504 202.745 221.989 202.249 227.26 203.978C229.354 204.665 231.986 206.666 230.71 209.259C229.447 211.823 226.224 209.733 224.228 210.899C222.369 211.984 223.4 214.947 223.531 216.718C223.779 220.074 223.824 223.413 223.736 226.776C223.541 234.204 223.088 241.622 223.002 249.052C222.96 252.661 223.012 256.268 223.202 259.873C223.37 263.054 223.258 266.516 224.346 269.552C225.86 265.761 226.045 261.576 226.645 257.582C227.296 253.261 227.932 248.94 228.55 244.613C228.917 242.043 229.299 226.608 234.328 228.624C239.674 230.767 237.815 242.641 238.058 246.91C238.287 250.94 238.699 254.954 239.612 258.891C240.036 260.721 241.204 268.492 243.55 268.994C245.271 260.862 247.09 252.742 248.355 244.523C248.913 240.895 249.406 237.239 249.629 233.573C249.745 231.666 249.604 227.079 252.362 226.857C260.469 226.204 255.03 260.362 261.088 264.66C263.329 260.202 264.205 255.554 264.813 250.613C265.089 248.364 265.681 245.831 265.331 243.575C264.873 240.624 264.375 238.815 264.991 235.765C265.495 233.268 265.858 230.705 266.44 228.23C266.86 226.446 267.956 225.575 268.535 223.967C270.164 219.438 270.059 213.705 270.709 208.952C271.367 204.137 272.061 199.404 271.208 194.547C270.363 189.737 266.845 188.208 262.845 186.222C258.814 184.222 254.925 182.023 250.499 181.141C245.529 180.15 240.968 179.19 235.881 178.926C226.903 178.463 218.105 179.001 209.168 179.426C199.23 179.9 189.283 179.31 179.35 179.173C174.522 179.107 169.603 179.014 164.783 179.092C162.368 179.132 160.025 179.551 157.594 179.49C155.523 179.439 151.474 180.077 149.661 178.976C148.238 178.111 148.24 176.197 149.441 175.141C150.631 174.095 152.965 174.04 154.451 173.717C159.2 172.687 163.934 172.095 168.717 171.268C171.471 170.791 173.782 170.633 176.543 170.767C179.223 170.899 181.957 170.132 184.668 170.002C190.412 169.728 196.189 169.456 201.936 169.366C213.073 169.193 224.083 168.343 235.231 168.37ZM241.043 277.31C240.147 277.656 240.375 281.936 240.293 282.791C240.051 285.351 239.786 287.908 239.558 290.469C239.032 296.382 238.636 302.307 238.312 308.234C237.989 314.161 237.606 320.107 237.625 326.045C237.634 328.573 237.747 331.099 237.696 333.626C237.658 335.516 236.827 339.051 238.439 340.394C239.521 341.294 241.64 340.889 242.903 340.806C245.401 340.642 247.904 340.475 250.408 340.457C253.3 340.434 256.173 340.745 259.067 340.67C260.177 340.641 261.417 340.456 262.516 340.665C263.312 340.818 264.181 341.505 264.928 341.535C265.478 341.557 266.189 341.011 266.796 340.904C267.742 340.737 268.852 340.931 269.814 340.919C270.498 340.911 272.148 340.601 272.778 341.006C273.391 341.399 273.155 342.296 273.716 342.495C273.929 342.571 275.146 341.125 275.355 341.033C276.287 340.626 277.647 340.943 278.629 340.954C281.458 340.986 284.289 340.807 287.119 340.834C289.878 340.86 292.538 341.181 295.186 341.501C296.937 341.713 298.947 341.182 300.806 341.026C303.777 340.777 306.761 340.823 309.74 340.883C311.236 340.913 312.732 340.936 314.227 340.973C314.581 340.982 315.282 340.844 315.624 340.946C316.996 341.358 316.125 341.382 317.095 342.009C315.823 341.187 319.941 340.651 320.179 340.649C322.048 340.635 323.761 341.553 325.316 341.374C327.001 341.179 328.722 340.138 330.576 340.461C331.442 340.612 332.162 341.581 332.806 341.692C333.846 341.872 334.202 341.12 335.156 340.744C337.061 339.993 339.27 340.648 341.258 340.517C344.049 340.335 346.736 340.329 349.538 340.291C354.649 340.224 359.759 340.14 364.871 340.189C369.578 340.235 373.36 342.122 378.041 342.02C380.496 341.966 382.992 341.752 385.444 341.811C387.549 341.861 388.624 343.43 387.033 345.274C385.957 346.52 383.981 346.652 382.464 346.88C380.213 347.219 378.001 347.706 375.757 348.083C370.421 348.977 364.836 348.949 359.438 349.111C337.425 349.774 315.407 351.731 293.381 351.938C283.709 352.029 273.934 352.843 264.293 352.464C258.915 352.251 253.657 353.408 248.237 352.577C245.952 352.226 243.706 352.014 241.402 351.849C241.102 351.828 239.342 351.487 239.01 351.639C238.029 352.086 238.576 351.677 238.164 352.812C237.489 354.677 237.771 357.65 237.774 359.635C237.781 362.799 237.935 365.969 238.041 369.131C238.144 372.16 238.312 375.187 238.493 378.213C238.567 379.465 238.074 384.173 239.04 385.107C239.787 385.83 243.282 385.488 244.228 385.285C245.362 385.043 245.468 384.983 246.696 385.127C247.602 385.234 247.924 385.208 248.831 385.11C251.429 384.829 254.404 384.779 257.012 385.249C259.036 385.612 261.161 384.652 261.936 386.781C263.245 385.178 263.216 386.101 264.655 386.423C266.137 386.754 265.683 385.797 266.939 385.665C267.825 385.573 268.614 386.272 269.572 386.279C271.153 386.289 272.576 385.871 274.267 386.082C281.733 387.013 289.304 387.851 296.833 387.92C299.957 387.949 303.044 387.997 306.15 388.092C307.735 388.14 309.234 388.305 310.793 388.492C312.262 388.669 313.416 388.316 314.943 388.239C318.32 388.066 321.862 388.581 325.239 388.765C326.827 388.852 328.816 388.579 330.339 388.788C331.869 388.997 331.985 390.159 333.202 390.833C333.394 387.061 341.281 389.477 343.334 389.482C344.141 389.484 345.126 389.141 346.099 389.203C347.71 389.307 349.331 389.333 350.944 389.39C353.517 389.48 356.003 389.636 358.446 389.324C361.638 388.918 365.105 389.351 368.33 389.331C371.841 389.309 375.352 389.262 378.862 389.147C382.417 389.03 385.966 388.813 389.521 388.699C392.609 388.599 395.885 388.848 398.929 388.622C399.718 388.563 400.473 387.985 401.178 387.955C402.156 387.913 403.251 388.333 404.38 388.237C407.937 387.933 411.252 387.883 414.847 387.896C421.014 387.917 427.422 386.778 433.336 385.144C436.061 384.391 438.894 384.35 441.601 383.543C444.725 382.61 447.586 380.984 450.461 379.479C452.713 378.3 455.879 377.752 454.962 374.771C453.983 371.589 452.421 368.504 451.256 365.378C450.243 362.66 449.598 360.012 447.403 357.968C445.234 355.948 442.463 354.591 440.152 352.728C435.115 348.669 429.857 346.242 423.893 343.837C417.881 341.414 412.397 337.84 406.082 336.229C400.218 334.732 394.568 332.726 388.822 331.193C382.536 329.515 376.053 328.907 369.713 327.416C363.636 325.986 357.67 323.884 351.513 322.795C344.851 321.618 338.128 321.012 331.491 319.575C325.865 318.358 320.496 315.973 314.84 315.021C313.188 314.743 311.401 314.573 309.802 314.054C308.307 313.568 307.237 312.585 305.725 312.186C302.236 311.267 299.203 310.014 295.899 308.519C294.509 307.891 293.739 307.118 292.535 306.339C291.099 305.41 289.26 305.081 287.648 304.568C284.543 303.582 281.451 302.613 278.665 300.881C275.778 299.087 273.125 297.058 270.467 294.962C269.342 294.074 268.138 293.183 266.984 292.353C265.563 291.33 264.104 291.145 262.511 290.477C255.601 287.578 252.576 280.772 248.812 274.85C248.458 279.646 243.87 281.871 241.043 277.31ZM339.247 193.301C339.724 191.153 340.403 188.071 337.726 187.95C337.553 187.943 335.78 188.386 335.597 188.504C334.685 189.09 334.34 191.047 333.992 191.996C333.685 192.834 333.472 193.95 332.792 194.583C332.12 195.208 331.419 195.223 330.792 195.972C328.885 198.251 327.464 202.165 326.31 204.916C327.875 204.537 326.738 205.587 327.403 206.185C328.443 207.119 328.119 206.951 329.598 207.095C332.173 207.347 333.349 206.661 335.363 205.057C337.071 203.696 337.619 202.805 338.602 200.841C340.008 198.036 339.322 196.248 339.245 193.299C339.949 193.948 340.654 194.597 341.359 195.246C341.141 194.396 340.921 193.546 340.703 192.696L339.247 193.301ZM265.154 23.6876C266.523 19.0024 269.08 18.6561 272.518 22.0224C273.063 20.8183 273.708 18.9485 275.293 18.959C276.416 18.9667 276.615 19.8749 277.368 20.4878C278.278 21.229 278.987 21.4892 280.141 21.6866C282.66 22.1173 285.001 21.9696 287.371 23.0958C289.531 24.1212 290.558 25.6188 292.221 27.1546C293.777 28.5913 294.912 27.6608 296.688 28.388C298.662 29.1966 299.545 31.5895 299.928 33.5284C300.395 35.9003 299.909 36.6561 301.558 38.3782C303.113 40.003 303.938 42.072 304.125 44.3044C304.302 46.4155 303.836 48.921 302.617 50.7011C301.245 52.7061 299.824 52.1518 301.61 54.5337C302.509 55.7331 302.61 58.286 303.691 59.0548C305.582 60.3983 308.025 58.2309 309.695 57.6854C311.965 56.9442 311.459 58.1841 312.454 59.6794C313.926 61.8884 314.8 59.6091 316.807 60.0503C317.545 60.2126 317.761 61.0089 318.021 61.1044C318.937 61.4442 317.964 61.3183 319.011 60.9403C319.707 60.6895 319.23 59.3395 320.632 60.1101C321.607 60.6462 320.873 61.5995 321.316 62.2897C322.186 63.6468 323.478 62.8558 324.121 64.6071C324.761 66.3515 325.628 68.6647 325.984 70.572C326.417 72.8888 325.399 74.905 325.548 77.097C325.704 79.3862 327.972 80.929 329.383 82.5339C336.303 90.3995 339.232 100.745 341.489 110.744C343.587 120.038 339.895 130.559 332.645 136.858C328.969 140.051 324.377 141.421 320.847 144.935C319.28 146.495 319.301 146.989 321.168 148.267C322.697 149.314 324.1 150.649 325.72 151.476C329.887 153.603 333.947 155.122 338.599 156.015C340.945 156.466 343.388 156.285 345.762 156.201C348.233 156.113 351.022 156.463 353.437 156.162C355.57 155.895 357.258 154.173 359.492 154.356C360.367 154.427 360.904 154.762 361.795 154.683C362.965 154.58 363.949 153.96 365.194 153.992C367.086 154.04 368.958 154.072 370.787 154.141C372.865 154.218 375.307 153.649 377.375 154.008C379.337 154.349 381.671 156.114 383.378 157.142C385.482 158.411 388.008 159.878 389.892 161.428C391.671 162.893 392.926 165.224 394.314 167.042C395.782 168.967 397.481 170.686 398.957 172.601C404.768 180.142 410.889 189.429 412.706 198.923C413.166 201.325 413.141 203.698 412.795 206.11C412.485 208.266 410.463 209.085 410.401 211.401C410.277 216.09 412.523 221.526 413.827 225.97C415.201 230.648 416.922 235.193 419.053 239.593C419.878 241.297 420.924 242.705 421.443 244.47C422.077 246.626 423.043 248.671 423.749 250.845C429.858 269.653 439.328 287.161 446.231 305.684C449.94 315.637 453.863 325.505 457.908 335.331C459.898 340.169 462.055 344.858 464.219 349.622C464.503 350.248 464.705 351.454 465.201 351.885C466.038 352.612 465.3 352.198 466.473 352.074C467.484 351.968 468.534 351.507 469.555 351.336C472.018 350.922 474.541 350.851 477.025 350.606C479.88 350.324 482.393 350.177 485.25 350.315C487.908 350.444 490.525 349.654 493.171 349.479C498.843 349.103 504.437 349.301 510.106 349.407C514.522 349.49 520.178 348.965 524.265 351.016C528.359 353.07 526.947 357.801 523.474 359.603C519.314 361.762 514.416 362.07 510.281 364.27C513.385 365.225 516.737 364.979 519.898 365.724C521.936 366.205 525.085 366.56 526.621 368.047C528.108 369.488 527.957 371.969 526.976 373.659C525.754 375.763 523.403 376.126 521.287 376.856C522.24 378.119 523.722 378.02 524.58 379.685C525.72 381.899 525.007 384.265 523.612 386.179C520.583 390.335 514.585 390.686 509.903 391.278C505.302 391.861 500.47 392 495.839 391.685C493.2 391.505 490.596 391.373 487.989 391.002C484.991 390.574 485.279 392.675 484.211 394.824C483.178 396.906 481.686 397.798 479.377 397.669C476.885 397.53 474.121 397.36 471.652 396.943C469.287 396.543 467.24 395.323 464.973 394.814C462.931 394.355 461.309 393.615 459.369 392.621C457.143 391.482 455.959 389.575 454.01 388.265C452.009 386.921 449.916 389.032 447.949 390.084C443.169 392.638 437.922 393.767 432.693 395.023C427.361 396.304 422.169 397.943 416.746 398.829C414.222 399.241 411.825 399.186 409.313 399.454C406.419 399.763 403.91 400.868 400.954 400.874C390.515 400.896 380.008 402.78 369.564 403.129C359.226 403.474 348.719 402.619 338.391 403.311C333.111 403.666 328 402.955 322.749 403.228C317.332 403.51 311.724 403.225 306.318 402.811C295.099 401.953 284.23 402.176 273.129 401.62C267.355 401.331 261.467 400.787 255.765 399.87C250.175 398.971 243.849 400.007 239.895 395.143C239.46 397.05 239.341 399.027 237.948 400.53C236.482 402.111 234.121 402.749 232.16 403.469C227.151 405.307 222.087 407.054 217.043 408.798C212.262 410.452 207.451 412.243 202.632 413.759C197.567 415.352 192.749 417.283 187.77 419.154C183.258 420.848 178.583 422.187 174.236 424.23C172.442 425.073 170.564 425.143 168.849 425.93C166.732 426.901 164.765 427.833 162.496 428.534C160.55 429.135 158.77 429.568 156.887 430.349C155.022 431.123 152.381 432.467 150.43 431.438C149.058 430.715 148.52 429.053 148.098 427.666C147.569 425.931 148.02 422.92 145.965 422.998C143.936 423.075 141.07 425.028 139.081 425.691C136.7 426.484 134.263 427.811 131.811 428.26C129.356 428.71 127.423 428.575 126.136 426.292C124.686 423.724 124.927 421.001 125.361 418.207C121.182 418.197 117.311 418.59 113.096 418.733C110.774 418.812 108.516 418.915 106.2 418.659C104.11 418.428 101.003 419.083 99.19 418.127C95.5051 416.182 96.0535 410.68 97.9121 407.671C98.9445 406.001 100.562 404.874 102.206 403.861C104.268 402.59 105.78 401.15 107.586 399.531C106.408 398.72 104.877 399.114 103.722 398.147C102.825 397.397 102.266 396.146 101.857 395.078C101.093 393.088 102.077 388.522 100.354 387.394C99.4344 386.792 97.8049 387.047 96.7537 386.564C95.3176 385.905 94.3092 384.689 93.6904 383.242C92.297 379.981 93.4912 376.586 94.8506 373.539C89.7002 372.661 82.1498 372.312 80.6767 366.347C80.2056 364.442 80.1412 362.237 80.7892 360.364C81.7513 357.584 83.992 357.434 86.4763 356.619C96.8633 353.21 106.592 347.674 117.782 346.853C123.777 346.414 129.814 346.182 135.801 345.561C141.815 344.936 147.612 343.834 153.665 344.582C156.24 344.9 159.222 344.617 161.685 345.083C164.067 345.532 164.369 348.341 162.548 349.963C160.778 351.539 158.212 350.531 156.105 350.708C153.119 350.958 150.604 352.371 147.816 353.26C140.975 355.444 133.479 356.993 126.345 357.777C122.516 358.198 118.899 358.254 115.15 359.275C111.744 360.203 108.374 361.257 104.957 362.146C108.69 363.144 115.923 363.033 117.165 367.581C117.75 369.722 117.102 372.684 115.22 374.007C114.127 374.776 111.74 374.425 111.052 375.574C113.991 375.934 117.344 373.673 118.958 376.907C120.799 380.598 118.998 383.511 116.642 386.252C118.723 385.907 120.864 386.3 122.966 386.033C124.589 385.827 126.104 385.339 127.645 385.847C128.419 386.102 128.317 386.791 129.294 386.795C130.004 386.798 131.067 386.025 131.684 385.728C134.026 384.597 136.403 383.677 138.825 382.733C141.771 381.585 144.57 380.702 147.511 379.981C151.57 378.985 155.646 376.428 159.607 374.983C161.285 374.371 163.442 373.743 164.276 371.996C165.136 370.193 164.477 367.554 164.424 365.648C164.275 360.286 164.339 354.916 164.371 349.552C164.399 345.041 164.507 340.615 164.909 336.121C165.389 330.744 164.959 325.386 165.165 320.001C165.354 315.056 164.911 310.122 165.045 305.178C165.196 299.671 165.471 294.184 165.528 288.67C165.629 278.766 165.963 268.874 166.154 258.972C166.351 248.801 167.429 238.625 169.603 228.68C170.577 224.225 171.849 219.687 173.544 215.454C174.08 214.114 174.643 214.038 173.353 213.271C172.587 212.817 171.642 213.324 170.892 213.425C169.313 213.636 167.904 213.729 166.297 213.635C157.088 213.095 147.552 213.532 138.376 214.36C133.603 214.791 128.805 215.201 124.013 215.372C119.234 215.542 114.455 216.283 109.676 215.933C101.668 215.346 92.5344 216.262 85.6713 211.104C78.3476 205.601 79.0373 195.851 83.7664 188.806C88.9853 181.031 97.7023 176.601 104.981 171.153C112.133 165.801 120.539 161.875 128.338 157.564C145.034 148.335 162.976 139.793 180.952 133.415C199.242 126.927 217.593 119.468 237.512 120.736C247.604 121.378 258.894 121.753 267.796 127.115C272.552 129.98 277.156 132.967 281.241 136.752C283.166 138.535 284.862 140.732 286.912 142.361C288.817 143.876 290.686 142.839 292.862 142.282C291.32 137.306 289.778 132.329 288.236 127.352C286.106 129.005 283.176 129.633 280.407 129.049C277.046 128.339 277.318 126.903 277.619 124.026C277.759 122.692 278.123 122.92 276.965 122.078C276.016 121.386 274.281 121.16 273.188 120.561C270.462 119.068 268.099 116.875 267.094 113.863C266.095 110.869 266.803 108.092 267.457 105.12C268.242 101.546 266.299 103.041 264.078 101.379C263.1 100.648 262.75 100.012 262.918 98.8048C263.055 97.8245 264.993 96.413 264.906 95.4479C264.801 94.2849 264.154 94.4149 263.234 93.7136C262.219 92.9395 261.488 91.9903 261.041 90.7722C260.093 88.1923 262.025 86.5985 262.835 84.2196C263.227 83.0665 263.613 82.0804 264.385 81.1101C265.751 79.3909 266.281 79.4284 268.187 79.4436C269.792 79.4559 269.775 79.3247 270.977 77.8733C271.443 77.3102 271.909 76.7507 272.312 76.1395C273.004 75.0901 273.196 75.2325 272.456 74.4128C270.199 71.9143 269.169 75.8149 267.165 75.5794C264.846 75.3069 264.43 71.6302 262.977 70.402C261.959 69.5425 260.799 69.87 259.687 69.2893C258.326 68.5798 258.053 67.2268 257.17 66.0931C255.737 64.2532 253.656 63.9286 252.7 61.5942C252.157 60.2694 252.083 58.9054 251.973 57.5009C251.815 55.5011 251.292 53.9202 250.71 52.0165C250.117 50.0747 250.263 48.6714 251.227 46.8849C252.221 45.0438 252.338 44.4245 252.088 42.3479C251.898 40.7671 251.839 39.3638 252.664 37.9534C253.553 36.4335 253.739 35.6401 254.029 33.9087C254.281 32.3905 254.763 31.2972 256.231 30.6673C257.231 30.2378 258.314 30.7159 259.021 29.738C259.726 28.7618 259.538 27.1979 260.262 26.1192C261.443 24.3597 263.22 24.0843 265.154 23.6876Z" fill="#2DE920"/>
<path fill-rule="evenodd" clip-rule="evenodd" d="M323.632 101.879C322.946 100.266 320.648 92.8254 324.427 92.7872C327.425 92.7569 326.478 99.2133 326.515 100.798C326.583 103.765 329.687 104.186 330.848 106.877C332.202 110.015 331.268 113.762 329.157 116.319C327.545 118.271 324.443 120.507 322.229 118.118C319.766 115.459 322.132 113.967 323.856 112.311C326.353 109.911 321.576 109.214 320.335 107.268C318.228 103.959 320.542 102.238 323.632 101.879Z" fill="#2DE920"/>
<path fill-rule="evenodd" clip-rule="evenodd" d="M312.81 103.557C312.466 105.089 312.57 108.586 310.906 109.412C308.116 110.797 307.471 104.119 307.493 102.645C307.516 101.077 308.059 97.3722 310.371 97.8521C312.965 98.3906 311.493 103.195 312.81 103.557Z" fill="#2DE920"/>
<path fill-rule="evenodd" clip-rule="evenodd" d="M323.247 122.951C327.374 123.079 327.142 128 323.185 128.172C319.503 128.332 319.594 122.838 323.247 122.951Z" fill="#2DE920"/>
<path fill-rule="evenodd" clip-rule="evenodd" d="M332.022 196.296C331.637 197.935 330.738 199.481 329.391 200.514C329.708 199.866 331.087 196.004 332.022 196.296Z" fill="white"/>
</svg>
