<svg width="31" height="22" viewBox="0 0 31 22" fill="none" xmlns="http://www.w3.org/2000/svg">
<path d="M15.9667 0.0429714C21.7221 0.0429714 26.4504 4.29841 27.2493 9.82558H30.6406L24.9341 16.3473L19.2276 9.82558H23.0102C22.6452 8.2297 21.75 6.80466 20.4708 5.78306C19.1915 4.76145 17.6038 4.20361 15.9667 4.20058C13.6026 4.20058 11.5156 5.35819 10.195 7.10275L7.40693 3.92341C8.47441 2.70353 9.79051 1.72614 11.2669 1.05685C12.7433 0.387567 14.3457 0.0418704 15.9667 0.0429714ZM15.3145 21.956C9.57541 21.956 4.83084 17.7006 4.03193 12.1734H0.640625L6.34715 5.65167C8.25476 7.82015 10.1461 10.0049 12.0537 12.1734H8.27106C8.63609 13.7693 9.53126 15.1943 10.8105 16.2159C12.0897 17.2375 13.6774 17.7954 15.3145 17.7984C17.6787 17.7984 19.7656 16.6408 21.0863 14.8962L23.8743 18.0756C22.8082 19.2971 21.4924 20.2756 20.0157 20.9451C18.539 21.6145 16.9359 21.9592 15.3145 21.956Z" fill="#2DE920"/>
</svg>
