<svg width="20" height="20" viewBox="0 0 20 20" fill="none" xmlns="http://www.w3.org/2000/svg">
<path opacity="0.7" d="M2.65865 0.998047L17.6038 2.94403M10.1312 16.1378V1.97104M10.1312 16.1378L15.3221 18.4632M10.1312 16.1378L4.94031 18.4632M1.73918 11.6766C1.46642 11.3835 1.26073 11.0346 1.13639 10.654C1.01205 10.2734 0.972053 9.87037 1.01916 9.47278C1.1116 8.75277 3.51002 3.70296 3.99165 2.66186C4.01968 2.5912 4.0683 2.5306 4.13119 2.48789C4.19407 2.44519 4.26834 2.42236 4.34435 2.42236C4.42037 2.42236 4.49463 2.44519 4.55752 2.48789C4.62041 2.5306 4.66902 2.5912 4.69706 2.66186L7.65495 9.5263C7.65495 10.4114 7.30334 11.2603 6.67746 11.8862C6.05159 12.512 5.20272 12.8636 4.3176 12.8636C3.82929 12.8537 3.34828 12.7432 2.90463 12.5389C2.46098 12.3347 2.06423 12.0411 1.73918 11.6766ZM15.7162 14.3815C15.2183 14.3793 14.7265 14.272 14.2729 14.0666C13.8194 13.8612 13.4143 13.5623 13.0842 13.1896C12.8107 12.8979 12.6042 12.55 12.479 12.1702C12.3538 11.7904 12.3129 11.3878 12.3594 10.9906C12.4566 10.2706 14.8502 5.21595 15.3367 4.17972C15.3675 4.11276 15.4169 4.05607 15.479 4.01639C15.5411 3.97671 15.6133 3.95573 15.687 3.95593C15.7627 3.95785 15.8363 3.98129 15.8992 4.0235C15.9621 4.06572 16.0117 4.12497 16.0421 4.19432L19 11.0539C18.9989 11.9299 18.6544 12.7706 18.0404 13.3954C17.4265 14.0203 16.592 14.3796 15.7162 14.3961V14.3815Z" stroke="white" stroke-width="2" stroke-linecap="round" stroke-linejoin="round"/>
</svg>
