<svg width="18" height="20" viewBox="0 0 18 20" fill="none" xmlns="http://www.w3.org/2000/svg">
<path opacity="0.7" d="M10.8194 13.8249V10.4979H12.1719V13.0405L14.3718 14.3118L13.6956 15.4839L10.8194 13.8249ZM6.83428 17.1879L5.40972 18.6125L4.05729 17.2601L2.70486 18.6125L1.35243 17.2601L0 18.6125V0.580078L1.35243 1.93251L2.70486 0.580078L4.05729 1.93251L5.40972 0.580078L6.76215 1.93251L8.11458 0.580078L9.46701 1.93251L10.8194 0.580078L12.1719 1.93251L13.5243 0.580078L14.8767 1.93251L16.2292 0.580078V8.78482C17.3823 9.97939 18.0184 11.5802 17.9996 13.2405C17.9808 14.9007 17.3086 16.4867 16.1286 17.6548C14.9486 18.8229 13.3559 19.4791 11.6956 19.4811C10.0352 19.4832 8.4409 18.831 7.25804 17.6658C7.10567 17.5167 6.96406 17.357 6.83428 17.1879ZM6.05889 15.9888C5.77037 15.3937 5.57201 14.7626 5.47283 14.1044H2.70486V12.3011H5.47283C5.563 11.661 5.75234 11.0569 6.02282 10.4979H2.70486V8.69466H7.30312C8.44818 7.57665 10.008 6.89142 11.7211 6.89142H2.70486V5.08818H13.5243V6.89142H11.7211C12.6678 6.89142 13.5874 7.10781 14.4259 7.50452V3.20379H1.80324V15.9888H6.05889ZM16.0939 13.2028C16.0939 10.7864 14.1284 8.8299 11.7211 8.8299C10.558 8.8299 9.46701 9.28973 8.6285 10.1102C7.80803 10.9487 7.3482 12.0397 7.3482 13.2028C7.3482 15.6191 9.30472 17.5756 11.7211 17.5756C12.2981 17.5756 12.8661 17.4674 13.3981 17.2601C13.921 17.0256 14.4259 16.701 14.8136 16.2953C15.2193 15.9076 15.5439 15.4027 15.7784 14.8798C15.9857 14.3478 16.0939 13.7798 16.0939 13.2028Z" fill="white"/>
</svg>
