<svg width="20" height="23" viewBox="0 0 20 23" fill="none" xmlns="http://www.w3.org/2000/svg">
<g opacity="0.7">
<path d="M1 19.6816V3.93164C1 3.3349 1.23705 2.76261 1.65901 2.34065C2.08097 1.91869 2.65326 1.68164 3.25 1.68164H18.325C18.504 1.68164 18.6757 1.75276 18.8023 1.87934C18.9289 2.00593 19 2.17762 19 2.35664V17.1099M3.25 17.4316H19M3.25 21.9316H19" stroke="white" stroke-width="1.5" stroke-linecap="round"/>
<path d="M3.25 21.9316C2.65326 21.9316 2.08097 21.6946 1.65901 21.2726C1.23705 20.8507 1 20.2784 1 19.6816C1 19.0849 1.23705 18.5126 1.65901 18.0907C2.08097 17.6687 2.65326 17.4316 3.25 17.4316" stroke="white" stroke-width="1.5" stroke-linecap="round" stroke-linejoin="round"/>
<path d="M6.625 6.18164H13.375" stroke="white" stroke-width="1.5" stroke-linecap="round"/>
</g>
</svg>
