<svg width="18" height="21" viewBox="0 0 18 21" fill="none" xmlns="http://www.w3.org/2000/svg">
<path d="M1.28571 19.0321H6.03257V12.5045C6.03257 12.2105 6.13243 11.9641 6.33214 11.7653C6.531 11.5655 6.77743 11.4657 7.07143 11.4657H10.9286C11.2226 11.4657 11.4694 11.5655 11.6691 11.7653C11.868 11.9641 11.9674 12.2105 11.9674 12.5045V19.0321H16.7143V7.85668C16.7143 7.72468 16.6856 7.60468 16.6281 7.49668C16.5707 7.38868 16.4923 7.29439 16.3929 7.21382L9.47057 1.9964C9.33857 1.88154 9.18171 1.82411 9 1.82411C8.81829 1.82411 8.66186 1.88154 8.53071 1.9964L1.60714 7.21382C1.50857 7.29611 1.43014 7.3904 1.37186 7.49668C1.31357 7.60297 1.28486 7.72297 1.28571 7.85668V19.0321ZM0 19.0321V7.85668C0 7.52754 0.0737142 7.21597 0.221143 6.92197C0.368571 6.62797 0.571714 6.38582 0.830571 6.19554L7.75414 0.952396C8.11671 0.675539 8.53071 0.537109 8.99614 0.537109C9.46157 0.537109 9.87814 0.675539 10.2459 0.952396L17.1694 6.19425C17.4291 6.38454 17.6323 6.62711 17.7789 6.92197C17.9263 7.21597 18 7.52754 18 7.85668V19.0321C18 19.3767 17.8719 19.6771 17.6156 19.9334C17.3593 20.1897 17.0589 20.3178 16.7143 20.3178H11.7206C11.4257 20.3178 11.1789 20.2184 10.98 20.0195C10.7811 19.8198 10.6817 19.573 10.6817 19.279V12.7527H7.31829V19.279C7.31829 19.5738 7.21886 19.8207 7.02 20.0195C6.82114 20.2184 6.57471 20.3178 6.28071 20.3178H1.28571C0.941143 20.3178 0.640714 20.1897 0.384428 19.9334C0.128143 19.6771 0 19.3767 0 19.0321Z" fill="white"/>
</svg>
