<svg width="18" height="21" viewBox="0 0 18 21" fill="none" xmlns="http://www.w3.org/2000/svg">
<path opacity="0.7" d="M18 7.08125V15.1812C18 16.1712 17.19 16.9812 16.2 16.9812H3.6L0 20.5812V4.38125C0 3.39125 0.81 2.58125 1.8 2.58125H10.89C10.8 2.85125 10.8 3.21125 10.8 3.48125C10.8 3.75125 10.8 4.11125 10.89 4.38125H1.8V15.1812H16.2V7.89125C16.83 7.80125 17.46 7.44125 18 7.08125ZM12.6 3.48125C12.6 5.01125 13.77 6.18125 15.3 6.18125C16.83 6.18125 18 5.01125 18 3.48125C18 1.95125 16.83 0.78125 15.3 0.78125C13.77 0.78125 12.6 1.95125 12.6 3.48125Z" fill="white"/>
</svg>
