<svg width="18" height="14" viewBox="0 0 18 14" fill="none" xmlns="http://www.w3.org/2000/svg">
<path opacity="0.7" d="M10.6364 8.12731C9.95455 8.12731 9.375 7.88867 8.89773 7.4114C8.42045 6.93413 8.18182 6.35458 8.18182 5.67276C8.18182 4.99094 8.42045 4.4114 8.89773 3.93413C9.375 3.45685 9.95455 3.21822 10.6364 3.21822C11.3182 3.21822 11.8977 3.45685 12.375 3.93413C12.8523 4.4114 13.0909 4.99094 13.0909 5.67276C13.0909 6.35458 12.8523 6.93413 12.375 7.4114C11.8977 7.88867 11.3182 8.12731 10.6364 8.12731ZM4.90909 10.5819C4.45909 10.5819 4.074 10.4218 3.75382 10.1016C3.43364 9.7814 3.27327 9.39604 3.27273 8.94549V2.40004C3.27273 1.95004 3.43309 1.56494 3.75382 1.24476C4.07454 0.924581 4.45964 0.764217 4.90909 0.763672H16.3636C16.8136 0.763672 17.199 0.924035 17.5197 1.24476C17.8405 1.56549 18.0005 1.95058 18 2.40004V8.94549C18 9.39549 17.8399 9.78085 17.5197 10.1016C17.1995 10.4223 16.8142 10.5824 16.3636 10.5819H4.90909ZM6.54545 8.94549H14.7273C14.7273 8.49549 14.8876 8.1104 15.2084 7.79022C15.5291 7.47004 15.9142 7.30967 16.3636 7.30913V4.0364C15.9136 4.0364 15.5285 3.87631 15.2084 3.55613C14.8882 3.23594 14.7278 2.85058 14.7273 2.40004H6.54545C6.54545 2.85004 6.38536 3.2354 6.06518 3.55613C5.745 3.87685 5.35964 4.03694 4.90909 4.0364V7.30913C5.35909 7.30913 5.74445 7.46949 6.06518 7.79022C6.38591 8.11094 6.546 8.49604 6.54545 8.94549ZM14.7273 13.8546H1.63636C1.18636 13.8546 0.801273 13.6945 0.481091 13.3743C0.160909 13.0541 0.000545455 12.6688 0 12.2182V4.0364C0 3.80458 0.0785454 3.6104 0.235636 3.45385C0.392727 3.29731 0.586909 3.21876 0.818182 3.21822C1.04945 3.21767 1.24391 3.29622 1.40155 3.45385C1.55918 3.61149 1.63745 3.80567 1.63636 4.0364V12.2182H14.7273C14.9591 12.2182 15.1535 12.2968 15.3106 12.4539C15.4677 12.6109 15.546 12.8051 15.5455 13.0364C15.5449 13.2677 15.4664 13.4621 15.3098 13.6198C15.1533 13.7774 14.9591 13.8557 14.7273 13.8546Z" fill="white"/>
</svg>
