<svg width="18" height="21" viewBox="0 0 18 21" fill="none" xmlns="http://www.w3.org/2000/svg">
<g opacity="0.7">
<path fill-rule="evenodd" clip-rule="evenodd" d="M16 0.949219C16.5046 0.949059 16.9906 1.13963 17.3605 1.48272C17.7305 1.82581 17.9572 2.29606 17.995 2.79922L18 2.94922V15.9492C18.0002 16.4538 17.8096 16.9398 17.4665 17.3098C17.1234 17.6797 16.6532 17.9064 16.15 17.9442L16 17.9492H2C1.49542 17.9494 1.00943 17.7588 0.639452 17.4157C0.269471 17.0726 0.0428434 16.6024 0.00500021 16.0992L1.00268e-07 15.9492V2.94922C-0.000159579 2.44464 0.190406 1.95865 0.533497 1.58867C0.876588 1.21869 1.34684 0.992062 1.85 0.954219L2 0.949219H16ZM5 12.9492H2V15.9492H5V12.9492ZM16 12.9492H7V15.9492H16V12.9492ZM5 7.94922H2V10.9492H5V7.94922ZM16 7.94922H7V10.9492H16V7.94922ZM5 2.94922H2V5.94922H5V2.94922ZM16 2.94922H7V5.94922H16V2.94922Z" fill="white"/>
</g>
</svg>
