<svg width="20" height="26" viewBox="0 0 20 26" fill="none" xmlns="http://www.w3.org/2000/svg">
<g opacity="0.7">
<path d="M6.14286 4.42578H3.57143C2.88944 4.42578 2.23539 4.6967 1.75315 5.17894C1.27092 5.66117 1 6.31522 1 6.99721V22.4258C1 23.1078 1.27092 23.7618 1.75315 24.2441C2.23539 24.7263 2.88944 24.9972 3.57143 24.9972H16.4286C17.1106 24.9972 17.7646 24.7263 18.2468 24.2441C18.7291 23.7618 19 23.1078 19 22.4258V6.99721C19 6.31522 18.7291 5.66117 18.2468 5.17894C17.7646 4.6967 17.1106 4.42578 16.4286 4.42578H13.8571" stroke="white" stroke-width="2" stroke-linecap="round" stroke-linejoin="round"/>
<path d="M6.14453 19.8535V13.4249M10.0017 19.8535V18.5678M13.8588 19.8535V15.9964M6.14453 4.42494C6.14453 3.74296 6.41545 3.08891 6.89769 2.60667C7.37992 2.12443 8.03397 1.85352 8.71596 1.85352H11.2874C11.9694 1.85352 12.6234 2.12443 13.1057 2.60667C13.5879 3.08891 13.8588 3.74296 13.8588 4.42494C13.8588 5.10693 13.5879 5.76098 13.1057 6.24322C12.6234 6.72546 11.9694 6.99637 11.2874 6.99637H8.71596C8.03397 6.99637 7.37992 6.72546 6.89769 6.24322C6.41545 5.76098 6.14453 5.10693 6.14453 4.42494Z" stroke="white" stroke-width="2" stroke-linecap="round" stroke-linejoin="round"/>
</g>
</svg>
