<svg width="20" height="17" viewBox="0 0 20 17" fill="none" xmlns="http://www.w3.org/2000/svg">
<g opacity="0.7">
<path d="M1.44922 3.11832L6.3991 1.31836L11.349 3.11832L9.09903 4.46828V5.81825C9.09903 5.81825 8.49875 5.36826 6.3991 5.36826C4.29945 5.36826 3.69916 5.81825 3.69916 5.81825V4.46828L1.44922 3.11832ZM1.44922 3.11832V6.71823" stroke="white" stroke-width="2" stroke-linecap="round" stroke-linejoin="round"/>
<path d="M9.0998 5.36873V6.16881C9.0998 7.71497 7.89113 8.96864 6.39987 8.96864C4.9086 8.96864 3.69993 7.71497 3.69993 6.16881V5.36873M12.9859 7.64567C12.9859 7.64567 13.4224 7.32798 14.9497 7.32798C16.4769 7.32798 16.9134 7.64477 16.9134 7.64477M12.9859 7.64567V6.7187L11.3497 5.81872L14.9497 4.46875L18.5496 5.81872L16.9134 6.7187V7.64477M12.9859 7.64567V7.90487C12.9859 8.42569 13.1928 8.92517 13.5611 9.29345C13.9294 9.66172 14.4288 9.86862 14.9497 9.86862C15.4705 9.86862 15.97 9.66172 16.3382 9.29345C16.7065 8.92517 16.9134 8.42569 16.9134 7.90487V7.64477M13.5997 15.7185H16.9341C17.6298 15.7185 18.1824 15.3801 18.6792 14.9067C19.6961 13.9383 18.0267 13.1643 17.3904 12.7854C16.8245 12.4514 16.1962 12.237 15.5442 12.1555C14.8922 12.0739 14.2304 12.1269 13.5997 12.3112M3.14645 12.052C2.29777 12.5263 0.0721216 13.4937 1.42749 14.7042C2.08987 15.2955 2.82695 15.7185 3.75483 15.7185H9.0449C9.97188 15.7185 10.7099 15.2955 11.3722 14.7042C12.7276 13.4937 10.502 12.5263 9.65329 12.052C7.66254 10.9405 5.1372 10.9405 3.14645 12.052Z" stroke="white" stroke-width="2" stroke-linecap="round" stroke-linejoin="round"/>
</g>
</svg>
