<svg width="18" height="16" viewBox="0 0 18 16" fill="none" xmlns="http://www.w3.org/2000/svg">
<path opacity="0.7" d="M16.6154 0.71875H1.38462C1.01739 0.71875 0.66521 0.864629 0.405544 1.12429C0.145879 1.38396 0 1.73614 0 2.10337V14.5649C0 14.9321 0.145879 15.2843 0.405544 15.544C0.66521 15.8036 1.01739 15.9495 1.38462 15.9495H2.54337C2.67439 15.9496 2.80274 15.9124 2.91349 15.8424C3.02425 15.7724 3.11286 15.6724 3.16904 15.554C3.50569 14.8433 4.0372 14.2427 4.70176 13.8221C5.36632 13.4016 6.13662 13.1783 6.92308 13.1783C7.70954 13.1783 8.47983 13.4016 9.14439 13.8221C9.80895 14.2427 10.3405 14.8433 10.6771 15.554C10.7333 15.6724 10.8219 15.7724 10.9327 15.8424C11.0434 15.9124 11.1718 15.9496 11.3028 15.9495H16.6154C16.9826 15.9495 17.3348 15.8036 17.5945 15.544C17.8541 15.2843 18 14.9321 18 14.5649V2.10337C18 1.73614 17.8541 1.38396 17.5945 1.12429C17.3348 0.864629 16.9826 0.71875 16.6154 0.71875ZM4.84615 9.71875C4.84615 9.30797 4.96796 8.90642 5.19618 8.56487C5.42439 8.22333 5.74876 7.95712 6.12827 7.79992C6.50778 7.64273 6.92538 7.6016 7.32826 7.68173C7.73115 7.76187 8.10122 7.95968 8.39168 8.25014C8.68215 8.54061 8.87995 8.91068 8.96009 9.31356C9.04023 9.71645 8.9991 10.134 8.8419 10.5136C8.68471 10.8931 8.4185 11.2174 8.07695 11.4456C7.73541 11.6739 7.33385 11.7957 6.92308 11.7957C6.37224 11.7957 5.84397 11.5769 5.45447 11.1874C5.06497 10.7979 4.84615 10.2696 4.84615 9.71875ZM16.6154 14.5649H11.7199C11.1417 13.571 10.2703 12.7802 9.225 12.3011C9.74907 11.8344 10.1189 11.2195 10.2856 10.5379C10.4522 9.85627 10.4078 9.14009 10.1581 8.48429C9.90848 7.82849 9.46541 7.26406 8.88767 6.86581C8.30992 6.46755 7.62478 6.25429 6.92308 6.25429C6.22137 6.25429 5.53623 6.46755 4.95849 6.86581C4.38074 7.26406 3.93768 7.82849 3.68803 8.48429C3.43837 9.14009 3.39392 9.85627 3.56057 10.5379C3.72722 11.2195 4.09709 11.8344 4.62115 12.3011C3.57589 12.7802 2.70443 13.571 2.12625 14.5649H1.38462V2.10337H16.6154V14.5649ZM2.76923 5.5649V4.18029C2.76923 3.99668 2.84217 3.82059 2.972 3.69075C3.10184 3.56092 3.27793 3.48798 3.46154 3.48798H14.5385C14.7221 3.48798 14.8982 3.56092 15.028 3.69075C15.1578 3.82059 15.2308 3.99668 15.2308 4.18029V12.488C15.2308 12.6716 15.1578 12.8477 15.028 12.9775C14.8982 13.1074 14.7221 13.1803 14.5385 13.1803H13.1538C12.9702 13.1803 12.7941 13.1074 12.6643 12.9775C12.5345 12.8477 12.4615 12.6716 12.4615 12.488C12.4615 12.3044 12.5345 12.1283 12.6643 11.9984C12.7941 11.8686 12.9702 11.7957 13.1538 11.7957H13.8462V4.8726H4.15385V5.5649C4.15385 5.74852 4.08091 5.92461 3.95107 6.05444C3.82124 6.18427 3.64515 6.25721 3.46154 6.25721C3.27793 6.25721 3.10184 6.18427 2.972 6.05444C2.84217 5.92461 2.76923 5.74852 2.76923 5.5649Z" fill="white"/>
</svg>
